<?xml version="1.0" encoding="utf-8"?>
<!-- Generator: Adobe Illustrator 16.0.0, SVG Export Plug-In . SVG Version: 6.00 Build 0)  -->
<!DOCTYPE svg PUBLIC "-//W3C//DTD SVG 1.1//EN" "http://www.w3.org/Graphics/SVG/1.1/DTD/svg11.dtd">
<svg version="1.1" id="圖層_1" xmlns="http://www.w3.org/2000/svg" xmlns:xlink="http://www.w3.org/1999/xlink" x="0px" y="0px"
	 width="2214.306px" height="537.054px" viewBox="0 0 2214.306 537.054" enable-background="new 0 0 2214.306 537.054"
	 xml:space="preserve">
<g opacity="0.3">
	<path fill="#AC4E5C" d="M139.554,305.551L24.542,56.26h26.495l104.775,227.614L349.706,56.26h33.118L164.844,309.767
		l-37.936,176.431h-26.495L139.554,305.551z"/>
	<path fill="#AC4E5C" d="M411.125,56.26h26.495l-90.925,429.938H320.2L411.125,56.26z"/>
	<path fill="#AC4E5C" d="M464.715,79.142l5.419-22.882h329.98l-4.817,22.882H645.963l-86.108,407.056h-26.495l86.108-407.056
		H464.715z"/>
	<path fill="#AC4E5C" d="M1070.481,79.142H797.103l5.419-22.882h302.282l-4.817,22.882l-357.68,384.175h294.454l-4.215,22.881
		H706.78l4.817-22.881L1070.481,79.142z"/>
	<path fill="#AC4E5C" d="M1419.722,338.67c-6.021,26.494-13.756,49.584-23.183,69.248c-9.437,19.674-21.479,36.129-36.13,49.377
		c-14.658,13.246-32.215,23.088-52.688,29.506c-20.474,6.416-44.767,9.633-72.861,9.633c-19.674,0-38.34-2.512-56-7.525
		c-17.669-5.016-33.119-12.646-46.366-22.883c-13.248-10.236-23.691-23.277-31.312-39.141c-7.63-15.854-11.441-34.623-11.441-56.301
		c0-8.824,0.903-18.863,2.709-30.107c1.807-11.234,3.707-21.273,5.721-30.107l54.194-254.109h26.495l-54.194,254.109
		c-2.409,12.043-4.422,22.58-6.021,31.613c-1.609,9.031-2.409,19.975-2.409,32.816c0,17.67,3.509,32.725,10.538,45.162
		c7.019,12.447,16.258,22.58,27.699,30.408s24.585,13.652,39.441,17.463c14.847,3.82,29.901,5.721,45.162,5.721
		c24.086,0,44.757-3.313,62.022-9.936c17.255-6.623,32.009-15.854,44.259-27.699c12.24-11.836,22.176-26.09,29.807-42.754
		c7.621-16.652,13.643-35.018,18.064-55.096l60.215-281.809h26.495L1419.722,338.67z"/>
	<path fill="#AC4E5C" d="M1558.816,56.26h269.765l-4.817,22.882h-243.27l-36.13,172.216h217.979l-4.215,22.883h-218.582
		l-43.957,211.957h-26.494L1558.816,56.26z"/>
	<path fill="#AC4E5C" d="M2133.872,338.67c-6.021,26.494-13.756,49.584-23.184,69.248c-9.437,19.674-21.479,36.129-36.129,49.377
		c-14.658,13.246-32.215,23.088-52.688,29.506c-20.473,6.416-44.767,9.633-72.86,9.633c-19.674,0-38.341-2.512-56.001-7.525
		c-17.669-5.016-33.118-12.646-46.365-22.883c-13.248-10.236-23.691-23.277-31.313-39.141c-7.63-15.854-11.44-34.623-11.44-56.301
		c0-8.824,0.903-18.863,2.71-30.107c1.806-11.234,3.707-21.273,5.72-30.107l54.194-254.109h26.494l-54.193,254.109
		c-2.408,12.043-4.422,22.58-6.021,31.613c-1.609,9.031-2.409,19.975-2.409,32.816c0,17.67,3.51,32.725,10.538,45.162
		c7.019,12.447,16.258,22.58,27.699,30.408c11.44,7.828,24.585,13.652,39.441,17.463c14.847,3.82,29.9,5.721,45.161,5.721
		c24.086,0,44.757-3.313,62.021-9.936c17.256-6.623,32.009-15.854,44.259-27.699c12.24-11.836,22.176-26.09,29.807-42.754
		c7.621-16.652,13.643-35.018,18.064-55.096l60.216-281.809h26.494L2133.872,338.67z"/>
</g>
</svg>
