<?xml version="1.0" encoding="utf-8"?>
<!-- Generator: Adobe Illustrator 16.0.0, SVG Export Plug-In . SVG Version: 6.00 Build 0)  -->
<!DOCTYPE svg PUBLIC "-//W3C//DTD SVG 1.1//EN" "http://www.w3.org/Graphics/SVG/1.1/DTD/svg11.dtd">
<svg version="1.1" id="Capa_1" xmlns="http://www.w3.org/2000/svg" xmlns:xlink="http://www.w3.org/1999/xlink" x="0px" y="0px"
	 width="4500px" height="2500px" viewBox="0 0 4500 2500" enable-background="new 0 0 4500 2500" xml:space="preserve">
<path id="XMLID_95_" fill="#FFFFFF" d="M1551.157,1522.703l-376.192,376.216c-16.409,16.401-37.915,24.614-59.419,24.614
	c-21.505,0-43.01-8.205-59.42-24.614c-32.818-32.819-32.818-86.027,0-118.846l376.201-376.217c32.818-32.811,86.02-32.811,118.838,0
	C1583.977,1436.676,1583.977,1489.884,1551.157,1522.703z M1745.557,2243.576l-112.971,112.972
	c-32.812,32.818-32.812,86.026,0,118.846c16.409,16.401,37.914,24.614,59.419,24.614s43.01-8.205,59.419-24.614l112.972-112.971
	c32.818-32.819,32.818-86.027,0-118.847C1831.584,2210.766,1778.376,2210.766,1745.557,2243.576z M3402.3,351.319
	c-7.906,19.809-16.271,40.764-24.889,62.856l-548.232,1404.605c-77.906,199.602-134.773,304.468-229.342,323.703
	c-10.145,2.07-19.961,3.049-29.503,3.049c-73.896,0-131.481-58.977-202.252-131.443c-1.902-1.94-3.819-3.903-5.745-5.882
	l-885.266,57.944c-34.942,2.246-67.594-17.304-82.031-49.183c-14.438-31.871-7.625-69.35,17.119-94.094l432.641-432.641
	L1474,1119.443c-106.775-106.775-169.151-190.756-150.221-279.364c20.802-97.387,119.389-135.003,268.608-191.932
	c19.84-7.57,40.84-15.585,62.918-24.202L3059.919,75.691C3260.597-2.62,3367.602-28.266,3433.048,37.67
	C3500.405,105.553,3461.375,203.322,3402.3,351.319z M3289.481,175.095c-31.68,7.822-83.704,24.079-168.455,57.15L1716.421,780.507
	c-22.498,8.778-43.904,16.952-64.117,24.668c-61.834,23.59-137.44,52.429-161.451,71.588
	c6.035,14.049,27.288,49.137,101.993,123.843l370.8,370.792l758.368-758.368c32.819-32.812,86.027-32.812,118.846,0
	c32.812,32.818,32.812,86.026,0,118.846l-817.397,817.382c-0.13,0.138-0.268,0.268-0.397,0.405c-0.138,0.138-0.267,0.26-0.404,0.397
	l-333.803,333.81l515.811-33.766l-99.549-99.549c-32.819-32.819-32.819-86.027,0-118.846c16.409-16.402,37.914-24.614,59.419-24.614
	s43.01,8.205,59.419,24.614l225.271,225.254c13.842,13.843,26.829,27.143,39.098,39.702c27.418,28.075,60.42,61.872,79.924,75.661
	c15.584-17.693,47.363-68.609,104.369-214.675L3220.85,353.054c8.785-22.506,17.311-43.873,25.362-64.049
	C3261.254,251.335,3278.558,207.974,3289.481,175.095z"/>
</svg>
